<?xml version="1.0" encoding="utf-8"?>
<!-- Generator: Adobe Illustrator 22.1.0, SVG Export Plug-In . SVG Version: 6.00 Build 0)  -->
<svg version="1.1" id="Layer_1" xmlns="http://www.w3.org/2000/svg" xmlns:xlink="http://www.w3.org/1999/xlink" x="0px" y="0px"
	 viewBox="0 0 408 179.1" style="enable-background:new 0 0 408 179.1;" xml:space="preserve">
<style type="text/css">
	.st0{fill:#D8D8DB;}
	.st1{fill:#FF8C1A;}
	.st2{font-family:'RigidSquare-Bold';}
	.st3{font-size:25px;}
</style>
<rect x="191.7" y="88" class="st0" width="4" height="8"/>
<rect x="191.7" y="40" class="st0" width="4" height="8"/>
<rect x="165.7" y="66" class="st0" width="8" height="4"/>
<rect x="213.7" y="66" class="st0" width="8" height="4"/>
<rect x="208.6" y="81" transform="matrix(0.7071 -0.7071 0.7071 0.7071 1.5805 173.8352)" class="st0" width="4" height="8"/>
<rect x="174.7" y="47.1" transform="matrix(0.7071 -0.7071 0.7071 0.7071 15.6388 139.8952)" class="st0" width="4" height="8"/>
<rect x="172.7" y="83" transform="matrix(0.7071 -0.7071 0.7071 0.7071 -8.3572 149.8415)" class="st0" width="8" height="4"/>
<rect x="206.6" y="49.1" transform="matrix(0.7071 -0.7071 0.7071 0.7071 25.5815 163.8988)" class="st0" width="8" height="4"/>
<path class="st0" d="M219.1,136.1c-7.2,0-15.4-2.8-24-8.2c-13.4-8.5-26.2-22.7-36.1-39.8s-15.7-35.3-16.4-51.2
	c-0.7-16.3,4.1-28.3,13.6-33.8s22.2-3.6,36,5.1c13.4,8.5,26.2,22.7,36.1,39.8s15.7,35.3,16.4,51.2c0.7,16.3-4.1,28.3-13.6,33.8
	C227.6,135.1,223.5,136.1,219.1,136.1z M168.2,4c-3.7,0-7.1,0.8-10.1,2.6c-8.1,4.7-12.2,15.4-11.6,30.1c0.7,15.2,6.3,32.7,15.9,49.4
	c9.6,16.6,21.9,30.3,34.8,38.5c12.4,7.9,23.8,9.7,31.9,5.1c8.1-4.7,12.2-15.4,11.6-30.1c-0.7-15.2-6.3-32.7-15.9-49.4
	c-9.6-16.6-21.9-30.3-34.8-38.5C182.1,6.6,174.7,4,168.2,4z"/>
<path class="st0" d="M168.2,136.1c-4.4,0-8.5-1-12-3.1c-9.5-5.5-14.3-17.4-13.6-33.8c0.7-15.8,6.5-34,16.4-51.2s22.7-31.3,36.1-39.8
	c13.8-8.8,26.6-10.6,36-5.1c9.5,5.5,14.3,17.4,13.6,33.8c-0.7,15.8-6.5,34-16.4,51.2s-22.7,31.3-36.1,39.8
	C183.6,133.3,175.4,136.1,168.2,136.1L168.2,136.1z M219.1,4c-6.5,0-13.9,2.6-21.8,7.6c-12.8,8.2-25.2,21.8-34.8,38.5
	c-9.6,16.6-15.2,34.1-15.9,49.4c-0.7,14.7,3.5,25.4,11.6,30.1c8.1,4.7,19.4,2.9,31.9-5.1c12.8-8.2,25.2-21.8,34.8-38.5
	c9.6-16.6,15.2-34.1,15.9-49.4c0.6-14.7-3.5-25.4-11.6-30.1C226.2,4.8,222.8,4,219.1,4L219.1,4z"/>
<path class="st0" d="M193.7,108c-19.8,0-38.5-4-52.5-11.3C126.6,89.1,118.7,79,118.7,68s8-21.1,22.5-28.6
	c14.1-7.3,32.7-11.3,52.5-11.3s38.5,4,52.5,11.3c14.5,7.5,22.5,17.7,22.5,28.6s-8,21.1-22.5,28.6C232.1,104,213.5,108,193.7,108z
	 M193.7,32.1c-39.1,0-71,16.1-71,36s31.9,36,71,36s71-16.1,71-36S232.8,32.1,193.7,32.1L193.7,32.1z"/>
<circle class="st1" cx="193.7" cy="68" r="15"/>
<path class="st0" d="M193.7,85c-9.4,0-17-7.6-17-17s7.6-17,17-17s17,7.6,17,17S203,85,193.7,85z M193.7,55c-7.2,0-13,5.8-13,13
	s5.8,13,13,13s13-5.8,13-13S200.8,55,193.7,55z"/>
<text transform="matrix(1 0 0 1 -1.602173e-04 172.7065)" class="st0 st2 st3">COMMUNITY SCIENCE MUSEUM</text>
</svg>
