<?xml version="1.0" encoding="utf-8"?>
<!-- Generator: Adobe Illustrator 22.1.0, SVG Export Plug-In . SVG Version: 6.00 Build 0)  -->
<svg version="1.1" id="Layer_1" xmlns="http://www.w3.org/2000/svg" xmlns:xlink="http://www.w3.org/1999/xlink" x="0px" y="0px"
	 viewBox="0 0 1200 1200" enable-background="new 0 0 1200 1200" xml:space="preserve">
<title>Logo design</title>
<desc>author: David Zydd</desc>
<rect fill="#FFFFFF" width="1200" height="1200"/>
<g>
	<g id="shape_1">
		<g>
			<defs>
				<polygon id="SVGID_1_" points="600,360 600,660 900,660 900,60 600,60 				"/>
			</defs>
			<clipPath id="SVGID_2_">
				<use xlink:href="#SVGID_1_"  overflow="visible"/>
			</clipPath>
			<g transform="scale(2) rotate(0)" clip-path="url(#SVGID_2_)">
				<g id="curve_1_c1">
					
						<linearGradient id="SVGID_3_" gradientUnits="userSpaceOnUse" x1="294.9883" y1="996.3563" x2="294.9883" y2="997.3563" gradientTransform="matrix(576 0 0 -576 -169313.2344 574549.25)">
						<stop  offset="0" style="stop-color:#1478C8"/>
						<stop  offset="1" style="stop-color:#288CDC"/>
					</linearGradient>
					<circle fill="url(#SVGID_3_)" cx="600" cy="360" r="288"/>
				</g>
			</g>
		</g>
		<g transform="scale(1.9)">
			<g id="curve_1_c0">
				<circle fill="#FFFFFF" cx="600" cy="360" r="273.6"/>
			</g>
		</g>
		<g>
			<defs>
				<polygon id="SVGID_4_" points="600,360 553.115,625.898 819.013,672.783 912.783,140.987 646.885,94.102 				"/>
			</defs>
			<clipPath id="SVGID_5_">
				<use xlink:href="#SVGID_4_"  overflow="visible"/>
			</clipPath>
			<g transform="scale(1.8) rotate(10)" clip-path="url(#SVGID_5_)">
				<g id="curve_1_c1_1_">
					
						<linearGradient id="SVGID_6_" gradientUnits="userSpaceOnUse" x1="294.8728" y1="996.2918" x2="294.8728" y2="997.2918" gradientTransform="matrix(510.5243 90.0192 90.0192 -510.5243 -239670.125 482702.25)">
						<stop  offset="0" style="stop-color:#1478C8"/>
						<stop  offset="1" style="stop-color:#288CDC"/>
					</linearGradient>
					<circle fill="url(#SVGID_6_)" cx="600" cy="360" r="259.2"/>
				</g>
			</g>
		</g>
		<g transform="scale(1.7)">
			<g id="curve_1_c0_1_">
				<circle fill="#FFFFFF" cx="600" cy="360" r="244.8"/>
			</g>
		</g>
		<g>
			<defs>
				<polygon id="SVGID_7_" points="600,360 517.915,585.526 743.441,667.611 907.611,216.559 682.085,134.474 				"/>
			</defs>
			<clipPath id="SVGID_8_">
				<use xlink:href="#SVGID_7_"  overflow="visible"/>
			</clipPath>
			<g transform="scale(1.6) rotate(20)" clip-path="url(#SVGID_8_)">
				<g id="curve_1_c1_2_">
					
						<linearGradient id="SVGID_9_" gradientUnits="userSpaceOnUse" x1="294.7463" y1="996.1985" x2="294.7463" y2="997.1985" gradientTransform="matrix(433.0104 157.6029 157.6029 -433.0104 -284110.7813 385487.9688)">
						<stop  offset="0" style="stop-color:#1478C8"/>
						<stop  offset="1" style="stop-color:#288CDC"/>
					</linearGradient>
					<circle fill="url(#SVGID_9_)" cx="600" cy="360" r="230.4"/>
				</g>
			</g>
		</g>
		<g transform="scale(1.5)">
			<g id="curve_1_c0_2_">
				<circle fill="#FFFFFF" cx="600" cy="360" r="216"/>
			</g>
		</g>
		<g>
			<defs>
				<polygon id="SVGID_10_" points="600,360 495,541.865 676.865,646.865 886.865,283.135 705,178.135 				"/>
			</defs>
			<clipPath id="SVGID_11_">
				<use xlink:href="#SVGID_10_"  overflow="visible"/>
			</clipPath>
			<g transform="scale(1.4) rotate(30)" clip-path="url(#SVGID_11_)">
				<g id="curve_1_c1_3_">
					
						<linearGradient id="SVGID_12_" gradientUnits="userSpaceOnUse" x1="294.6133" y1="996.076" x2="294.6133" y2="997.076" gradientTransform="matrix(349.1814 201.6 201.6 -349.1814 -303183.1875 288951.75)">
						<stop  offset="0" style="stop-color:#1478C8"/>
						<stop  offset="1" style="stop-color:#288CDC"/>
					</linearGradient>
					<circle fill="url(#SVGID_12_)" cx="600" cy="360" r="201.6"/>
				</g>
			</g>
		</g>
		<g transform="scale(1.3)">
			<g id="curve_1_c0_3_">
				<circle fill="#FFFFFF" cx="600" cy="360" r="187.2"/>
			</g>
		</g>
		<g>
			<defs>
				<polygon id="SVGID_13_" points="600,360 484.298,497.888 622.186,613.59 853.59,337.814 715.702,222.112 				"/>
			</defs>
			<clipPath id="SVGID_14_">
				<use xlink:href="#SVGID_13_"  overflow="visible"/>
			</clipPath>
			<g transform="scale(1.2) rotate(40)" clip-path="url(#SVGID_14_)">
				<g id="curve_1_c1_4_">
					
						<linearGradient id="SVGID_15_" gradientUnits="userSpaceOnUse" x1="294.4665" y1="995.905" x2="294.4665" y2="996.905" gradientTransform="matrix(264.745 222.1474 222.1474 -264.745 -298707.2813 198738.2813)">
						<stop  offset="0" style="stop-color:#1478C8"/>
						<stop  offset="1" style="stop-color:#288CDC"/>
					</linearGradient>
					<circle fill="url(#SVGID_15_)" cx="600" cy="360" r="172.8"/>
				</g>
			</g>
		</g>
		<g transform="scale(1.1)">
			<g id="curve_1_c0_4_">
				<circle fill="#FFFFFF" cx="600" cy="360" r="158.4"/>
			</g>
		</g>
		<g>
			<defs>
				<polygon id="SVGID_16_" points="600,360 485.094,456.418 581.512,571.325 811.325,378.488 714.906,263.582 				"/>
			</defs>
			<clipPath id="SVGID_17_">
				<use xlink:href="#SVGID_16_"  overflow="visible"/>
			</clipPath>
			<g transform="scale(1) rotate(50)" clip-path="url(#SVGID_17_)">
				<g id="curve_1_c1_5_">
					
						<linearGradient id="SVGID_18_" gradientUnits="userSpaceOnUse" x1="294.2965" y1="995.6743" x2="294.2965" y2="996.6743" gradientTransform="matrix(185.1228 220.6208 220.6208 -185.1228 -273657.75 119846.6484)">
						<stop  offset="0" style="stop-color:#1478C8"/>
						<stop  offset="1" style="stop-color:#288CDC"/>
					</linearGradient>
					<circle fill="url(#SVGID_18_)" cx="600" cy="360" r="144"/>
				</g>
			</g>
		</g>
		<g transform="scale(0.9)">
			<g id="curve_1_c0_5_">
				<circle fill="#FFFFFF" cx="600" cy="360" r="129.6"/>
			</g>
		</g>
		<g>
			<defs>
				<polygon id="SVGID_19_" points="600,360 496.077,420 556.077,523.923 763.923,403.923 703.923,300 				"/>
			</defs>
			<clipPath id="SVGID_20_">
				<use xlink:href="#SVGID_19_"  overflow="visible"/>
			</clipPath>
			<g transform="scale(0.8) rotate(60)" clip-path="url(#SVGID_20_)">
				<g id="curve_1_c1_6_">
					
						<linearGradient id="SVGID_21_" gradientUnits="userSpaceOnUse" x1="294.0877" y1="995.3359" x2="294.0877" y2="996.3359" gradientTransform="matrix(115.2 199.5323 199.5323 -115.2 -231980.3125 56400.3086)">
						<stop  offset="0" style="stop-color:#1478C8"/>
						<stop  offset="1" style="stop-color:#288CDC"/>
					</linearGradient>
					<path fill="url(#SVGID_21_)" d="M699.766,302.4c31.813,55.1,12.934,125.554-42.166,157.366
						c-55.099,31.813-125.554,12.934-157.365-42.166c-31.813-55.099-12.934-125.554,42.166-157.366
						C597.499,228.422,667.954,247.301,699.766,302.4z"/>
				</g>
			</g>
		</g>
		<g transform="scale(0.7)">
			<g id="curve_1_c0_6_">
				<circle fill="#FFFFFF" cx="600" cy="360" r="100.8"/>
			</g>
		</g>
		<g>
			<defs>
				<polygon id="SVGID_22_" points="600,360 515.428,390.782 546.209,475.355 715.354,413.791 684.572,329.218 				"/>
			</defs>
			<clipPath id="SVGID_23_">
				<use xlink:href="#SVGID_22_"  overflow="visible"/>
			</clipPath>
			<g transform="scale(0.6) rotate(70)" clip-path="url(#SVGID_23_)">
				<g id="curve_1_c1_7_">
					
						<linearGradient id="SVGID_24_" gradientUnits="userSpaceOnUse" x1="293.8013" y1="994.8005" x2="293.8013" y2="995.8005" gradientTransform="matrix(59.1011 162.3789 162.3789 -59.1011 -178379.7813 11476.2275)">
						<stop  offset="0" style="stop-color:#1478C8"/>
						<stop  offset="1" style="stop-color:#288CDC"/>
					</linearGradient>
					<circle fill="url(#SVGID_24_)" cx="600" cy="360" r="86.4"/>
				</g>
			</g>
		</g>
		<g transform="scale(0.5)">
			<g id="curve_1_c0_7_">
				<circle fill="#FFFFFF" cx="600" cy="360" r="72"/>
			</g>
		</g>
		<g>
			<defs>
				<polygon id="SVGID_25_" points="600,360 540.911,370.419 551.33,429.508 669.508,408.67 659.089,349.581 				"/>
			</defs>
			<clipPath id="SVGID_26_">
				<use xlink:href="#SVGID_25_"  overflow="visible"/>
			</clipPath>
			<g transform="scale(0.4) rotate(80)" clip-path="url(#SVGID_26_)">
				<g id="curve_1_c1_8_">
					
						<linearGradient id="SVGID_27_" gradientUnits="userSpaceOnUse" x1="293.3017" y1="993.7847" x2="293.3017" y2="994.7847" gradientTransform="matrix(20.0043 113.4499 113.4499 -20.0043 -118068.5781 -13025.1172)">
						<stop  offset="0" style="stop-color:#1478C8"/>
						<stop  offset="1" style="stop-color:#288CDC"/>
					</linearGradient>
					<circle fill="url(#SVGID_27_)" cx="600" cy="360" r="57.6"/>
				</g>
			</g>
		</g>
		<g transform="scale(0.3)">
			<g id="curve_1_c0_8_">
				
					<ellipse transform="matrix(0.1562 -0.9877 0.9877 0.1562 150.7194 896.4205)" fill="#FFFFFF" cx="600" cy="360" rx="43.2" ry="43.2"/>
			</g>
		</g>
		<g>
			<defs>
				<polygon id="SVGID_28_" points="600,360 570,360 570,390 630,390 630,360 				"/>
			</defs>
			<clipPath id="SVGID_29_">
				<use xlink:href="#SVGID_28_"  overflow="visible"/>
			</clipPath>
			<g transform="scale(0.2) rotate(90)" clip-path="url(#SVGID_29_)">
				<g id="curve_1_c1_9_">
					
						<linearGradient id="SVGID_30_" gradientUnits="userSpaceOnUse" x1="291.9419" y1="990.8788" x2="291.9419" y2="991.8788" gradientTransform="matrix(0 57.6 57.6 0 -56503.418 -16455.8535)">
						<stop  offset="0" style="stop-color:#1478C8"/>
						<stop  offset="1" style="stop-color:#288CDC"/>
					</linearGradient>
					<circle fill="url(#SVGID_30_)" cx="600" cy="360" r="28.8"/>
				</g>
			</g>
		</g>
		<g transform="translate(600,360) rotate(0) scale(6,6)">
			<g id="curve_1_c0_9_">
				<ellipse transform="matrix(1 -0.004 0.004 1 -1.4183 2.3744)" fill="#FFFFFF" cx="600" cy="360" rx="14.4" ry="14.4"/>
			</g>
		</g>
	</g>
	<g transform="translate(130,780) scale(0.06,-0.06)">
		<g id="text_lft">
			
				<linearGradient id="SVGID_31_" gradientUnits="userSpaceOnUse" x1="294.8083" y1="993.7467" x2="294.8083" y2="994.7467" gradientTransform="matrix(426.3 0 0 90.96 -125324.3906 -89700.6641)">
				<stop  offset="0" style="stop-color:#1478C8"/>
				<stop  offset="1" style="stop-color:#288CDC"/>
			</linearGradient>
			<path fill="url(#SVGID_31_)" d="M157.06,701.34v64.021h36.12c2.88,0,5.09,0.699,6.63,2.1c1.54,1.4,2.31,3.16,2.31,5.28
				c0,2.16-0.76,3.91-2.28,5.25c-1.52,1.34-3.74,2.01-6.66,2.01h-43.02c-3.88,0-6.67-0.86-8.37-2.58c-1.7-1.72-2.55-4.5-2.55-8.34
				v-67.74c0-3.6,0.81-6.3,2.43-8.1c1.62-1.8,3.75-2.7,6.39-2.7c2.68,0,4.85,0.89,6.51,2.67
				C156.23,694.99,157.06,697.7,157.06,701.34z M252.52,690.54c9.12,0,16.95,1.85,23.49,5.55c6.54,3.7,11.49,8.96,14.85,15.78
				c3.36,6.82,5.04,14.83,5.04,24.03c0,6.8-0.92,12.979-2.76,18.54c-1.84,5.56-4.6,10.38-8.28,14.46
				c-3.68,4.08-8.2,7.199-13.56,9.359c-5.36,2.16-11.5,3.24-18.42,3.24c-6.88,0-13.04-1.11-18.48-3.33
				c-5.44-2.22-9.98-5.35-13.62-9.39c-3.64-4.04-6.39-8.9-8.25-14.58c-1.86-5.681-2.79-11.82-2.79-18.42
				c0-6.761,0.97-12.96,2.91-18.601c1.94-5.64,4.75-10.439,8.43-14.399c3.68-3.96,8.16-6.99,13.44-9.09
				C239.8,691.59,245.8,690.54,252.52,690.54z M277.84,735.78c0-6.441-1.04-12.021-3.12-16.74c-2.08-4.72-5.05-8.29-8.91-10.71
				c-3.86-2.42-8.29-3.63-13.29-3.63c-3.56,0-6.85,0.67-9.87,2.01c-3.02,1.34-5.62,3.29-7.8,5.85c-2.18,2.56-3.9,5.83-5.16,9.81
				c-1.26,3.979-1.89,8.45-1.89,13.41c0,5,0.63,9.519,1.89,13.559c1.26,4.04,3.04,7.391,5.34,10.05c2.3,2.66,4.94,4.65,7.92,5.971
				c2.98,1.319,6.25,1.979,9.81,1.979c4.56,0,8.75-1.14,12.57-3.42c3.82-2.28,6.86-5.8,9.12-10.56
				C276.71,748.6,277.84,742.74,277.84,735.78z M335.08,742.38h-6.24v28.26c0,3.721-0.82,6.46-2.46,8.221
				c-1.64,1.76-3.78,2.64-6.42,2.64c-2.84,0-5.04-0.92-6.6-2.76c-1.561-1.84-2.341-4.54-2.341-8.101v-67.68
				c0-3.84,0.86-6.62,2.58-8.34c1.721-1.72,4.5-2.58,8.341-2.58h28.979c4,0,7.42,0.17,10.26,0.51c2.84,0.34,5.4,1.03,7.681,2.07
				c2.76,1.16,5.199,2.82,7.319,4.979c2.12,2.16,3.73,4.67,4.83,7.53c1.101,2.86,1.65,5.89,1.65,9.09
				c0,6.561-1.851,11.8-5.55,15.721c-3.7,3.92-9.311,6.699-16.83,8.34c3.16,1.68,6.18,4.16,9.06,7.439
				c2.88,3.28,5.45,6.771,7.71,10.471c2.26,3.699,4.021,7.04,5.28,10.02c1.26,2.98,1.89,5.03,1.89,6.15
				c0,1.159-0.37,2.31-1.109,3.449c-0.74,1.141-1.75,2.04-3.03,2.7c-1.28,0.66-2.76,0.99-4.441,0.99c-2,0-3.68-0.47-5.04-1.41
				c-1.359-0.939-2.529-2.13-3.51-3.57c-0.979-1.439-2.31-3.56-3.99-6.359l-7.14-11.88c-2.56-4.36-4.85-7.681-6.87-9.96
				c-2.02-2.28-4.07-3.84-6.149-4.681C340.86,742.8,338.24,742.38,335.08,742.38z M345.28,705.42h-16.44v24.18h15.96
				c4.28,0,7.88-0.369,10.8-1.109c2.92-0.74,5.15-2,6.69-3.78c1.54-1.78,2.31-4.229,2.31-7.35c0-2.44-0.619-4.591-1.859-6.45
				c-1.24-1.86-2.96-3.25-5.16-4.17C355.5,705.86,351.4,705.42,345.28,705.42z M457.48,705.78H417.34v21.6h36.96
				c2.72,0,4.75,0.61,6.09,1.83c1.341,1.22,2.011,2.83,2.011,4.83s-0.66,3.63-1.98,4.89c-1.32,1.261-3.36,1.891-6.12,1.891h-36.96
				v25.019h41.521c2.8,0,4.909,0.65,6.33,1.95c1.42,1.3,2.13,3.03,2.13,5.191c0,2.079-0.71,3.769-2.13,5.069
				c-1.421,1.3-3.53,1.95-6.33,1.95h-48.42c-3.881,0-6.671-0.86-8.37-2.58c-1.7-1.72-2.551-4.5-2.551-8.34v-66.12
				c0-2.56,0.381-4.65,1.141-6.27c0.76-1.62,1.95-2.801,3.57-3.54c1.619-0.74,3.689-1.11,6.21-1.11h47.04
				c2.84,0,4.949,0.63,6.329,1.89c1.381,1.261,2.07,2.91,2.07,4.95c0,2.08-0.689,3.75-2.07,5.01
				C462.43,705.15,460.32,705.78,457.48,705.78z M511.18,766.74l-14.1-56.04v60.72c0,3.36-0.75,5.88-2.25,7.561
				c-1.5,1.68-3.49,2.519-5.97,2.519c-2.4,0-4.36-0.83-5.88-2.49c-1.521-1.66-2.28-4.19-2.28-7.59v-69.6c0-3.84,1-6.431,3-7.771
				s4.7-2.01,8.1-2.01h5.52c3.319,0,5.73,0.3,7.23,0.9c1.5,0.6,2.61,1.68,3.33,3.239c0.72,1.561,1.54,4.101,2.46,7.62l12.78,48.181
				L535.9,703.8c0.92-3.519,1.739-6.06,2.46-7.62c0.72-1.56,1.83-2.64,3.33-3.239c1.5-0.601,3.909-0.9,7.23-0.9h5.52
				c3.399,0,6.1,0.67,8.1,2.01s3,3.931,3,7.771v69.6c0,3.36-0.75,5.88-2.25,7.561c-1.5,1.68-3.51,2.519-6.03,2.519
				c-2.359,0-4.3-0.84-5.819-2.519c-1.52-1.681-2.28-4.2-2.28-7.561V710.7l-14.101,56.04c-0.92,3.64-1.67,6.31-2.25,8.01
				c-0.579,1.7-1.649,3.25-3.21,4.65c-1.56,1.399-3.72,2.1-6.479,2.1c-2.08,0-3.84-0.45-5.28-1.35c-1.439-0.9-2.56-2.051-3.359-3.45
				c-0.801-1.4-1.431-2.95-1.891-4.65C512.13,770.35,511.66,768.58,511.18,766.74z"/>
		</g>
	</g>
	<g transform="translate(650,780) scale(0.06,-0.06)">
		<g id="text_rgt">
			
				<linearGradient id="SVGID_32_" gradientUnits="userSpaceOnUse" x1="294.7221" y1="993.7467" x2="294.7221" y2="994.7467" gradientTransform="matrix(379.08 0 0 90.96 -110873.3984 -89700.6641)">
				<stop  offset="0" style="stop-color:#1478C8"/>
				<stop  offset="1" style="stop-color:#288CDC"/>
			</linearGradient>
			<path fill="url(#SVGID_32_)" d="M660.32,770.64v-69.3c0-3.6,0.819-6.3,2.46-8.1c1.64-1.8,3.76-2.7,6.359-2.7
				c2.681,0,4.851,0.89,6.511,2.67c1.659,1.78,2.489,4.49,2.489,8.13v69.3c0,3.641-0.83,6.36-2.489,8.16
				c-1.66,1.8-3.83,2.7-6.511,2.7c-2.56,0-4.67-0.91-6.33-2.73C661.15,776.95,660.32,774.24,660.32,770.64z M732.2,745.74h-16.32
				v24.899c0,3.561-0.84,6.261-2.519,8.101c-1.681,1.84-3.801,2.76-6.36,2.76c-2.68,0-4.84-0.91-6.481-2.73
				c-1.64-1.819-2.46-4.489-2.46-8.01v-67.8c0-3.92,0.9-6.72,2.7-8.4c1.8-1.68,4.66-2.52,8.58-2.52h22.86
				c6.76,0,11.96,0.52,15.6,1.56c3.601,1,6.71,2.66,9.33,4.98c2.62,2.32,4.61,5.16,5.97,8.52c1.36,3.36,2.04,7.141,2.04,11.341
				c0,8.96-2.76,15.75-8.279,20.369C751.34,743.43,743.12,745.74,732.2,745.74z M727.88,705.42h-12v26.88h12
				c4.2,0,7.71-0.439,10.53-1.319c2.82-0.881,4.97-2.32,6.45-4.32c1.479-2,2.22-4.62,2.22-7.86c0-3.88-1.14-7.04-3.42-9.479
				C741.1,706.72,735.84,705.42,727.88,705.42z M846.86,753.6c0,5.32-1.37,10.101-4.11,14.341c-2.74,4.239-6.75,7.56-12.03,9.96
				c-5.279,2.399-11.54,3.6-18.779,3.6c-8.681,0-15.841-1.64-21.48-4.92c-4-2.36-7.25-5.51-9.75-9.45
				c-2.5-3.939-3.75-7.769-3.75-11.49c0-2.159,0.75-4.01,2.25-5.55c1.5-1.54,3.41-2.309,5.73-2.309c1.88,0,3.47,0.6,4.77,1.8
				c1.3,1.2,2.41,2.98,3.33,5.34c1.12,2.8,2.33,5.14,3.63,7.021c1.3,1.88,3.13,3.43,5.49,4.649c2.359,1.22,5.46,1.83,9.3,1.83
				c5.28,0,9.57-1.229,12.87-3.689c3.3-2.461,4.95-5.53,4.95-9.211c0-2.92-0.891-5.289-2.67-7.109c-1.78-1.82-4.08-3.21-6.9-4.17
				c-2.82-0.96-6.59-1.98-11.31-3.061c-6.32-1.479-11.61-3.21-15.87-5.189c-4.261-1.98-7.641-4.681-10.141-8.101
				c-2.5-3.42-3.75-7.67-3.75-12.75c0-4.84,1.32-9.14,3.96-12.899c2.641-3.76,6.46-6.65,11.46-8.67c5-2.021,10.881-3.03,17.641-3.03
				c5.399,0,10.069,0.67,14.01,2.01c3.94,1.34,7.21,3.12,9.809,5.34c2.601,2.221,4.5,4.551,5.7,6.99c1.2,2.44,1.8,4.82,1.8,7.14
				c0,2.12-0.75,4.03-2.25,5.73s-3.369,2.55-5.609,2.55c-2.04,0-3.59-0.51-4.65-1.53c-1.06-1.02-2.21-2.689-3.45-5.01
				c-1.6-3.319-3.52-5.91-5.76-7.77c-2.24-1.86-5.84-2.79-10.8-2.79c-4.6,0-8.31,1.01-11.13,3.03
				c-2.82,2.019-4.231,4.449-4.231,7.289c0,1.761,0.481,3.28,1.44,4.561c0.96,1.28,2.28,2.38,3.96,3.3c1.68,0.92,3.38,1.64,5.1,2.16
				c1.721,0.52,4.561,1.28,8.521,2.28c4.96,1.16,9.45,2.44,13.47,3.84c4.021,1.399,7.44,3.1,10.26,5.1c2.82,2,5.021,4.53,6.601,7.59
				C846.07,745.41,846.86,749.16,846.86,753.6z M862.1,743.64v-42.3c0-3.6,0.811-6.3,2.431-8.1c1.62-1.8,3.75-2.7,6.39-2.7
				c2.76,0,4.95,0.9,6.57,2.7c1.62,1.8,2.43,4.5,2.43,8.1v43.26c0,4.92,0.55,9.03,1.65,12.33c1.1,3.301,3.05,5.86,5.85,7.681
				c2.8,1.819,6.72,2.729,11.76,2.729c6.96,0,11.88-1.85,14.761-5.55c2.88-3.7,4.319-9.309,4.319-16.83v-43.62
				c0-3.64,0.8-6.35,2.4-8.13c1.6-1.78,3.74-2.67,6.42-2.67s4.85,0.89,6.51,2.67c1.66,1.78,2.49,4.49,2.49,8.13v42.3
				c0,6.88-0.67,12.62-2.01,17.221c-1.34,4.6-3.87,8.64-7.59,12.12c-3.2,2.96-6.921,5.119-11.16,6.479
				c-4.24,1.36-9.2,2.04-14.88,2.04c-6.761,0-12.58-0.73-17.46-2.19c-4.881-1.46-8.86-3.72-11.94-6.779
				c-3.08-3.061-5.34-6.981-6.78-11.761C862.82,755.99,862.1,750.28,862.1,743.64z M985.04,766.74l-14.1-56.04v60.72
				c0,3.36-0.75,5.88-2.25,7.561c-1.5,1.68-3.49,2.519-5.971,2.519c-2.399,0-4.359-0.83-5.88-2.49c-1.519-1.66-2.28-4.19-2.28-7.59
				v-69.6c0-3.84,1-6.431,3-7.771s4.7-2.01,8.101-2.01h5.52c3.32,0,5.73,0.3,7.23,0.9c1.5,0.6,2.609,1.68,3.33,3.239
				c0.72,1.561,1.54,4.101,2.46,7.62l12.78,48.181l12.779-48.181c0.92-3.519,1.74-6.06,2.46-7.62c0.721-1.56,1.83-2.64,3.33-3.239
				c1.5-0.601,3.91-0.9,7.23-0.9h5.52c3.4,0,6.101,0.67,8.101,2.01s3,3.931,3,7.771v69.6c0,3.36-0.75,5.88-2.25,7.561
				c-1.5,1.68-3.511,2.519-6.03,2.519c-2.36,0-4.3-0.84-5.82-2.519c-1.52-1.681-2.28-4.2-2.28-7.561V710.7l-14.1,56.04
				c-0.92,3.64-1.67,6.31-2.25,8.01c-0.58,1.7-1.65,3.25-3.21,4.65c-1.56,1.399-3.72,2.1-6.48,2.1c-2.08,0-3.841-0.45-5.28-1.35
				c-1.44-0.9-2.561-2.051-3.36-3.45c-0.8-1.4-1.43-2.95-1.89-4.65C985.99,770.35,985.519,768.58,985.04,766.74z"/>
		</g>
	</g>
	<g>
		<g id="shape_2">
			<g>
				<defs>
					<polygon id="SVGID_33_" points="200,1030 200,1180 350,1180 350,880 200,880 					"/>
				</defs>
				<clipPath id="SVGID_34_">
					<use xlink:href="#SVGID_33_"  overflow="visible"/>
				</clipPath>
				<g transform="scale(2) rotate(0)" clip-path="url(#SVGID_34_)">
					<g id="curve_1_c1_10_">
						
							<linearGradient id="SVGID_35_" gradientUnits="userSpaceOnUse" x1="294.4763" y1="996.7124" x2="294.4763" y2="997.7124" gradientTransform="matrix(288 0 0 -288 -84609.1563 288227.1563)">
							<stop  offset="0" style="stop-color:#1478C8"/>
							<stop  offset="1" style="stop-color:#288CDC"/>
						</linearGradient>
						<circle fill="url(#SVGID_35_)" cx="200" cy="1030" r="144"/>
					</g>
				</g>
			</g>
			<g transform="scale(1.9)">
				<g id="curve_1_c0_10_">
					<circle fill="#FFFFFF" cx="200" cy="1030" r="136.8"/>
				</g>
			</g>
			<g>
				<defs>
					<polygon id="SVGID_36_" points="200,1030 153.827,1156.858 280.685,1203.031 373.031,949.315 246.173,903.142 					"/>
				</defs>
				<clipPath id="SVGID_37_">
					<use xlink:href="#SVGID_36_"  overflow="visible"/>
				</clipPath>
				<g transform="scale(1.8) rotate(20)" clip-path="url(#SVGID_37_)">
					<g id="curve_1_c1_11_">
						
							<linearGradient id="SVGID_38_" gradientUnits="userSpaceOnUse" x1="294.1626" y1="996.3547" x2="294.1626" y2="997.3547" gradientTransform="matrix(243.5683 88.6516 88.6516 -243.5683 -159821.4531 217754.2188)">
							<stop  offset="0" style="stop-color:#1478C8"/>
							<stop  offset="1" style="stop-color:#288CDC"/>
						</linearGradient>
						<circle fill="url(#SVGID_38_)" cx="200" cy="1030" r="129.6"/>
					</g>
				</g>
			</g>
			<g transform="scale(1.7)">
				<g id="curve_1_c0_11_">
					
						<ellipse transform="matrix(0.7071 -0.7071 0.7071 0.7071 -669.7413 443.1015)" fill="#FFFFFF" cx="200" cy="1030" rx="122.4" ry="122.4"/>
				</g>
			</g>
			<g>
				<defs>
					<polygon id="SVGID_39_" points="200,1030 122.865,1121.926 214.791,1199.06 369.06,1015.209 277.135,938.074 					"/>
				</defs>
				<clipPath id="SVGID_40_">
					<use xlink:href="#SVGID_39_"  overflow="visible"/>
				</clipPath>
				<g transform="scale(1.6) rotate(40)" clip-path="url(#SVGID_40_)">
					<g id="curve_1_c1_12_">
						
							<linearGradient id="SVGID_41_" gradientUnits="userSpaceOnUse" x1="293.9469" y1="995.861" x2="293.9469" y2="996.861" gradientTransform="matrix(176.4966 148.0983 148.0983 -176.4966 -199240 133351.2969)">
							<stop  offset="0" style="stop-color:#1478C8"/>
							<stop  offset="1" style="stop-color:#288CDC"/>
						</linearGradient>
						<circle fill="url(#SVGID_41_)" cx="200" cy="1030" r="115.2"/>
					</g>
				</g>
			</g>
			<g transform="scale(1.5)">
				<g id="curve_1_c0_12_">
					<circle fill="#FFFFFF" cx="200" cy="1030" r="108"/>
				</g>
			</g>
			<g>
				<defs>
					<polygon id="SVGID_42_" points="200,1030 109.067,1082.5 161.567,1173.433 343.433,1068.433 290.933,977.5 					"/>
				</defs>
				<clipPath id="SVGID_43_">
					<use xlink:href="#SVGID_42_"  overflow="visible"/>
				</clipPath>
				<g transform="scale(1.4) rotate(60)" clip-path="url(#SVGID_43_)">
					<g id="curve_1_c1_13_">
						
							<linearGradient id="SVGID_44_" gradientUnits="userSpaceOnUse" x1="293.8885" y1="995.2408" x2="293.8885" y2="996.2408" gradientTransform="matrix(100.8 174.5907 174.5907 -100.8 -203271.0469 50090.4648)">
							<stop  offset="0" style="stop-color:#1478C8"/>
							<stop  offset="1" style="stop-color:#288CDC"/>
						</linearGradient>
						<circle fill="url(#SVGID_44_)" cx="200" cy="1030" r="100.8"/>
					</g>
				</g>
			</g>
			<g transform="scale(1.3)">
				<g id="curve_1_c0_13_">
					<circle fill="#FFFFFF" cx="200" cy="1030" r="93.6"/>
				</g>
			</g>
			<g>
				<defs>
					<polygon id="SVGID_45_" points="200,1030 111.367,1045.628 126.996,1134.261 304.261,1103.004 288.633,1014.372 					"/>
				</defs>
				<clipPath id="SVGID_46_">
					<use xlink:href="#SVGID_45_"  overflow="visible"/>
				</clipPath>
				<g transform="scale(1.2) rotate(80)" clip-path="url(#SVGID_46_)">
					<g id="curve_1_c1_14_">
						
							<linearGradient id="SVGID_47_" gradientUnits="userSpaceOnUse" x1="294.0351" y1="994.5249" x2="294.0351" y2="995.5249" gradientTransform="matrix(30.0064 170.1748 170.1748 -30.0064 -177951.0938 -19150.2441)">
							<stop  offset="0" style="stop-color:#1478C8"/>
							<stop  offset="1" style="stop-color:#288CDC"/>
						</linearGradient>
						<circle fill="url(#SVGID_47_)" cx="200" cy="1030" r="86.4"/>
					</g>
				</g>
			</g>
			<g transform="scale(1.1)">
				<g id="curve_1_c0_14_">
					<circle fill="#FFFFFF" cx="200" cy="1030" r="79.2"/>
				</g>
			</g>
			<g>
				<defs>
					<polygon id="SVGID_48_" points="200,1030 126.14,1016.977 113.116,1090.837 260.837,1116.884 273.86,1043.023 					"/>
				</defs>
				<clipPath id="SVGID_49_">
					<use xlink:href="#SVGID_48_"  overflow="visible"/>
				</clipPath>
				<g transform="scale(1) rotate(100)" clip-path="url(#SVGID_49_)">
					<g id="curve_1_c1_15_">
						
							<linearGradient id="SVGID_50_" gradientUnits="userSpaceOnUse" x1="294.4572" y1="993.7349" x2="294.4572" y2="994.7349" gradientTransform="matrix(-25.0053 141.8123 141.8123 25.0053 -133431.7344 -65588.7891)">
							<stop  offset="0" style="stop-color:#1478C8"/>
							<stop  offset="1" style="stop-color:#288CDC"/>
						</linearGradient>
						<circle fill="url(#SVGID_50_)" cx="200" cy="1030" r="72"/>
					</g>
				</g>
			</g>
			<g transform="scale(0.9)">
				<g id="curve_1_c0_15_">
					<circle fill="#FFFFFF" cx="200" cy="1030" r="64.8"/>
				</g>
			</g>
			<g>
				<defs>
					<polygon id="SVGID_51_" points="200,1030 148.039,1000 118.039,1051.962 221.961,1111.962 251.961,1060 					"/>
				</defs>
				<clipPath id="SVGID_52_">
					<use xlink:href="#SVGID_51_"  overflow="visible"/>
				</clipPath>
				<g transform="scale(0.8) rotate(120)" clip-path="url(#SVGID_52_)">
					<g id="curve_1_c1_16_">
						
							<linearGradient id="SVGID_53_" gradientUnits="userSpaceOnUse" x1="295.2403" y1="992.8962" x2="295.2403" y2="993.8962" gradientTransform="matrix(-57.6 99.7661 99.7661 57.6 -81901.4297 -85644.6016)">
							<stop  offset="0" style="stop-color:#1478C8"/>
							<stop  offset="1" style="stop-color:#288CDC"/>
						</linearGradient>
						<circle fill="url(#SVGID_53_)" cx="200" cy="1030" r="57.6"/>
					</g>
				</g>
			</g>
			<g transform="scale(0.7)">
				<g id="curve_1_c0_16_">
					<circle fill="#FFFFFF" cx="200" cy="1030" r="50.4"/>
				</g>
			</g>
			<g>
				<defs>
					<polygon id="SVGID_54_" points="200,1030 171.075,995.528 136.602,1024.453 194.454,1093.397 228.925,1064.472 					"/>
				</defs>
				<clipPath id="SVGID_55_">
					<use xlink:href="#SVGID_54_"  overflow="visible"/>
				</clipPath>
				<g transform="scale(0.6) rotate(140)" clip-path="url(#SVGID_55_)">
					<g id="curve_1_c1_17_">
						
							<linearGradient id="SVGID_56_" gradientUnits="userSpaceOnUse" x1="296.5971" y1="991.9835" x2="296.5971" y2="992.9835" gradientTransform="matrix(-66.1862 55.5369 55.5369 66.1862 -35288.8203 -81130.7969)">
							<stop  offset="0" style="stop-color:#1478C8"/>
							<stop  offset="1" style="stop-color:#288CDC"/>
						</linearGradient>
						<circle fill="url(#SVGID_56_)" cx="200" cy="1030" r="43.2"/>
					</g>
				</g>
			</g>
			<g transform="scale(0.5)">
				<g id="curve_1_c0_17_">
					<circle fill="#FFFFFF" cx="200" cy="1030" r="36"/>
				</g>
			</g>
			<g>
				<defs>
					<polygon id="SVGID_57_" points="200,1030 189.739,1001.81 161.549,1012.07 182.07,1068.451 210.261,1058.19 					"/>
				</defs>
				<clipPath id="SVGID_58_">
					<use xlink:href="#SVGID_57_"  overflow="visible"/>
				</clipPath>
				<g transform="scale(0.4) rotate(160)" clip-path="url(#SVGID_58_)">
					<g id="curve_1_c1_18_">
						
							<linearGradient id="SVGID_59_" gradientUnits="userSpaceOnUse" x1="299.0988" y1="990.8974" x2="299.0988" y2="991.8974" gradientTransform="matrix(-54.1263 19.7004 19.7004 54.1263 -3141.8159 -58523.0391)">
							<stop  offset="0" style="stop-color:#1478C8"/>
							<stop  offset="1" style="stop-color:#288CDC"/>
						</linearGradient>
						<path fill="url(#SVGID_59_)" d="M209.85,1057.063c-14.946,5.439-31.473-2.267-36.913-17.213
							c-5.44-14.947,2.266-31.474,17.213-36.914c14.946-5.439,31.473,2.267,36.913,17.213
							C232.503,1035.097,224.797,1051.623,209.85,1057.063z"/>
					</g>
				</g>
			</g>
			<g transform="scale(0.3)">
				<g id="curve_1_c0_18_">
					<circle fill="#FFFFFF" cx="200" cy="1030" r="21.6"/>
				</g>
			</g>
			<g>
				<defs>
					<polygon id="SVGID_60_" points="200,1030 200,1015 185,1015 185,1045 200,1045 					"/>
				</defs>
				<clipPath id="SVGID_61_">
					<use xlink:href="#SVGID_60_"  overflow="visible"/>
				</clipPath>
				<g transform="scale(0.2) rotate(180)" clip-path="url(#SVGID_61_)">
					<g id="curve_1_c1_19_">
						
							<linearGradient id="SVGID_62_" gradientUnits="userSpaceOnUse" x1="305.7438" y1="988.882" x2="305.7438" y2="989.8821" gradientTransform="matrix(-28.8 0 0 28.8 9005.4219 -27464.2031)">
							<stop  offset="0" style="stop-color:#1478C8"/>
							<stop  offset="1" style="stop-color:#288CDC"/>
						</linearGradient>
						<circle fill="url(#SVGID_62_)" cx="200" cy="1030" r="14.4"/>
					</g>
				</g>
			</g>
			<g transform="translate(200,1030) rotate(0) scale(3,3)">
				<g id="curve_1_c0_19_">
					<circle fill="#FFFFFF" cx="200" cy="1030" r="7.2"/>
				</g>
			</g>
		</g>
		<g>
			<g id="shape_3">
				<g>
					<defs>
						<polygon id="SVGID_63_" points="600,1030 600,1180 750,1180 750,880 600,880 						"/>
					</defs>
					<clipPath id="SVGID_64_">
						<use xlink:href="#SVGID_63_"  overflow="visible"/>
					</clipPath>
					<g transform="scale(2) rotate(0)" clip-path="url(#SVGID_64_)">
						<g id="curve_1_c1_20_">
							
								<linearGradient id="SVGID_65_" gradientUnits="userSpaceOnUse" x1="294.4763" y1="996.7124" x2="294.4763" y2="997.7124" gradientTransform="matrix(288 0 0 -288 -84209.1563 288227.1563)">
								<stop  offset="0" style="stop-color:#1478C8"/>
								<stop  offset="1" style="stop-color:#288CDC"/>
							</linearGradient>
							<circle fill="url(#SVGID_65_)" cx="600" cy="1030" r="144"/>
						</g>
					</g>
				</g>
				<g transform="scale(1.9)">
					<g id="curve_1_c0_20_">
						<circle fill="#FFFFFF" cx="600" cy="1030" r="136.8"/>
					</g>
				</g>
				<g>
					<defs>
						<polygon id="SVGID_66_" points="600,1030 532.5,1146.913 649.413,1214.413 784.413,980.587 667.5,913.087 						"/>
					</defs>
					<clipPath id="SVGID_67_">
						<use xlink:href="#SVGID_66_"  overflow="visible"/>
					</clipPath>
					<g transform="scale(1.8) rotate(30)" clip-path="url(#SVGID_67_)">
						<g id="curve_1_c1_21_">
							
								<linearGradient id="SVGID_68_" gradientUnits="userSpaceOnUse" x1="294.1193" y1="996.116" x2="294.1193" y2="997.116" gradientTransform="matrix(224.4738 129.6 129.6 -224.4738 -194583.5 186626.3125)">
								<stop  offset="0" style="stop-color:#1478C8"/>
								<stop  offset="1" style="stop-color:#288CDC"/>
							</linearGradient>
							<circle fill="url(#SVGID_68_)" cx="600" cy="1030" r="129.6"/>
						</g>
					</g>
				</g>
				<g transform="scale(1.7)">
					<g id="curve_1_c0_21_">
						<circle fill="#FFFFFF" cx="600" cy="1030" r="122.4"/>
					</g>
				</g>
				<g>
					<defs>
						<polygon id="SVGID_69_" points="600,1030 496.077,1090 556.077,1193.923 763.923,1073.923 703.923,970 						"/>
					</defs>
					<clipPath id="SVGID_70_">
						<use xlink:href="#SVGID_69_"  overflow="visible"/>
					</clipPath>
					<g transform="scale(1.6) rotate(60)" clip-path="url(#SVGID_70_)">
						<g id="curve_1_c1_22_">
							
								<linearGradient id="SVGID_71_" gradientUnits="userSpaceOnUse" x1="294.0876" y1="995.3359" x2="294.0876" y2="996.3359" gradientTransform="matrix(115.2 199.5323 199.5323 -115.2 -231980.3125 57070.3086)">
								<stop  offset="0" style="stop-color:#1478C8"/>
								<stop  offset="1" style="stop-color:#288CDC"/>
							</linearGradient>
							<path fill="url(#SVGID_71_)" d="M699.766,972.4c31.813,55.099,12.934,125.554-42.166,157.365
								c-55.099,31.813-125.554,12.934-157.365-42.166c-31.813-55.099-12.934-125.554,42.166-157.366
								C597.499,898.422,667.954,917.301,699.766,972.4z"/>
						</g>
					</g>
				</g>
				<g transform="scale(1.5)">
					<g id="curve_1_c0_22_">
						<circle fill="#FFFFFF" cx="600" cy="1030" r="108"/>
					</g>
				</g>
				<g>
					<defs>
						<polygon id="SVGID_72_" points="600,1030 495,1030 495,1135 705,1135 705,1030 						"/>
					</defs>
					<clipPath id="SVGID_73_">
						<use xlink:href="#SVGID_72_"  overflow="visible"/>
					</clipPath>
					<g transform="scale(1.4) rotate(90)" clip-path="url(#SVGID_73_)">
						<g id="curve_1_c1_23_">
							
								<linearGradient id="SVGID_74_" gradientUnits="userSpaceOnUse" x1="294.4831" y1="994.537" x2="294.4831" y2="995.537" gradientTransform="matrix(0 201.6 201.6 0 -199999.4531 -58337.793)">
								<stop  offset="0" style="stop-color:#1478C8"/>
								<stop  offset="1" style="stop-color:#288CDC"/>
							</linearGradient>
							<circle fill="url(#SVGID_74_)" cx="600" cy="1030" r="100.8"/>
						</g>
					</g>
				</g>
				<g transform="scale(1.3)">
					<g id="curve_1_c0_23_">
						<circle fill="#FFFFFF" cx="600" cy="1030" r="93.6"/>
					</g>
				</g>
				<g>
					<defs>
						<polygon id="SVGID_75_" points="600,1030 522.058,985 477.058,1062.942 632.942,1152.942 677.942,1075 						"/>
					</defs>
					<clipPath id="SVGID_76_">
						<use xlink:href="#SVGID_75_"  overflow="visible"/>
					</clipPath>
					<g transform="scale(1.2) rotate(120)" clip-path="url(#SVGID_76_)">
						<g id="curve_1_c1_24_">
							
								<linearGradient id="SVGID_77_" gradientUnits="userSpaceOnUse" x1="295.3262" y1="993.929" x2="295.3262" y2="994.9289" gradientTransform="matrix(-86.4 149.6492 149.6492 86.4 -122699.3047 -129083.9844)">
								<stop  offset="0" style="stop-color:#1478C8"/>
								<stop  offset="1" style="stop-color:#288CDC"/>
							</linearGradient>
							<circle fill="url(#SVGID_77_)" cx="600" cy="1030" r="86.4"/>
						</g>
					</g>
				</g>
				<g transform="scale(1.1)">
					<g id="curve_1_c0_24_">
						<circle fill="#FFFFFF" cx="600" cy="1030" r="79.2"/>
					</g>
				</g>
				<g>
					<defs>
						<polygon id="SVGID_78_" points="600,1030 562.5,965.048 497.548,1002.548 572.548,1132.452 637.5,1094.952 						"/>
					</defs>
					<clipPath id="SVGID_79_">
						<use xlink:href="#SVGID_78_"  overflow="visible"/>
					</clipPath>
					<g transform="scale(1) rotate(150)" clip-path="url(#SVGID_79_)">
						<g id="curve_1_c1_25_">
							
								<linearGradient id="SVGID_80_" gradientUnits="userSpaceOnUse" x1="296.5591" y1="993.7422" x2="296.5591" y2="994.7422" gradientTransform="matrix(-124.7077 72 72 124.7077 -34002.2383 -144311.9219)">
								<stop  offset="0" style="stop-color:#1478C8"/>
								<stop  offset="1" style="stop-color:#288CDC"/>
							</linearGradient>
							<path fill="url(#SVGID_80_)" d="M636,1092.354c-34.438,19.883-78.472,8.084-98.354-26.354
								c-19.883-34.438-8.084-78.472,26.354-98.354c34.438-19.883,78.472-8.084,98.354,26.354
								C682.236,1028.438,670.438,1072.472,636,1092.354z"/>
						</g>
					</g>
				</g>
				<g transform="scale(0.9)">
					<g id="curve_1_c0_25_">
						<circle fill="#FFFFFF" cx="600" cy="1030" r="64.8"/>
					</g>
				</g>
				<g>
					<defs>
						<polygon id="SVGID_81_" points="600,1030 600,970 540,970 540,1090 600,1090 						"/>
					</defs>
					<clipPath id="SVGID_82_">
						<use xlink:href="#SVGID_81_"  overflow="visible"/>
					</clipPath>
					<g transform="scale(0.8) rotate(180)" clip-path="url(#SVGID_82_)">
						<g id="curve_1_c1_26_">
							
								<linearGradient id="SVGID_83_" gradientUnits="userSpaceOnUse" x1="298.0617" y1="994.2207" x2="298.0617" y2="995.2207" gradientTransform="matrix(-115.2 0 0 115.2 34936.707 -113561.8203)">
								<stop  offset="0" style="stop-color:#1478C8"/>
								<stop  offset="1" style="stop-color:#288CDC"/>
							</linearGradient>
							<circle fill="url(#SVGID_83_)" cx="600" cy="1030" r="57.6"/>
						</g>
					</g>
				</g>
				<g transform="scale(0.7)">
					<g id="curve_1_c0_26_">
						<circle fill="#FFFFFF" cx="600" cy="1030" r="50.4"/>
					</g>
				</g>
				<g>
					<defs>
						<polygon id="SVGID_84_" points="600,1030 622.5,991.029 583.529,968.529 538.529,1046.471 577.5,1068.971 						"/>
					</defs>
					<clipPath id="SVGID_85_">
						<use xlink:href="#SVGID_84_"  overflow="visible"/>
					</clipPath>
					<g transform="scale(0.6) rotate(210)" clip-path="url(#SVGID_85_)">
						<g id="curve_1_c1_27_">
							
								<linearGradient id="SVGID_86_" gradientUnits="userSpaceOnUse" x1="299.6432" y1="995.6526" x2="299.6432" y2="996.6526" gradientTransform="matrix(-74.8246 -43.2 -43.2 74.8246 66054.4688 -60562.1328)">
								<stop  offset="0" style="stop-color:#1478C8"/>
								<stop  offset="1" style="stop-color:#288CDC"/>
							</linearGradient>
							<path fill="url(#SVGID_86_)" d="M578.4,1067.412c-20.663-11.929-27.742-38.35-15.813-59.012
								c11.929-20.663,38.35-27.742,59.012-15.813c20.663,11.929,27.742,38.35,15.813,59.012
								C625.483,1072.263,599.063,1079.342,578.4,1067.412z"/>
						</g>
					</g>
				</g>
				<g transform="scale(0.5)">
					<g id="curve_1_c0_27_">
						<circle fill="#FFFFFF" cx="600" cy="1030" r="36"/>
					</g>
				</g>
				<g>
					<defs>
						<polygon id="SVGID_87_" points="600,1030 625.98,1015 610.98,989.02 559.019,1019.019 574.019,1045 						"/>
					</defs>
					<clipPath id="SVGID_88_">
						<use xlink:href="#SVGID_87_"  overflow="visible"/>
					</clipPath>
					<g transform="scale(0.4) rotate(240)" clip-path="url(#SVGID_88_)">
						<g id="curve_1_c1_28_">
							
								<linearGradient id="SVGID_89_" gradientUnits="userSpaceOnUse" x1="301.136" y1="998.6538" x2="301.136" y2="999.6538" gradientTransform="matrix(-28.8 -49.8831 -49.8831 28.8 59113.6055 -12724.0313)">
								<stop  offset="0" style="stop-color:#1478C8"/>
								<stop  offset="1" style="stop-color:#288CDC"/>
							</linearGradient>
							<path fill="url(#SVGID_89_)" d="M575.059,1044.4c-7.953-13.775-3.233-31.389,10.541-39.342
								c13.775-7.953,31.389-3.233,39.342,10.541c7.953,13.775,3.233,31.389-10.541,39.342
								C600.625,1062.895,583.012,1058.175,575.059,1044.4z"/>
						</g>
					</g>
				</g>
				<g transform="scale(0.3)">
					<g id="curve_1_c0_28_">
						<circle fill="#FFFFFF" cx="600" cy="1030" r="21.6"/>
					</g>
				</g>
				<g>
					<defs>
						<polygon id="SVGID_90_" points="600,1030 615,1030 615,1015 585,1015 585,1030 						"/>
					</defs>
					<clipPath id="SVGID_91_">
						<use xlink:href="#SVGID_90_"  overflow="visible"/>
					</clipPath>
					<g transform="scale(0.2) rotate(270)" clip-path="url(#SVGID_91_)">
						<g id="curve_1_c1_29_">
							
								<linearGradient id="SVGID_92_" gradientUnits="userSpaceOnUse" x1="302.6188" y1="1006.2432" x2="302.6188" y2="1007.2432" gradientTransform="matrix(0 -28.8 -28.8 0 29594.2031 9745.4219)">
								<stop  offset="0" style="stop-color:#1478C8"/>
								<stop  offset="1" style="stop-color:#288CDC"/>
							</linearGradient>
							<circle fill="url(#SVGID_92_)" cx="600" cy="1030" r="14.4"/>
						</g>
					</g>
				</g>
				<g transform="translate(600,1030) rotate(0) scale(3,3)">
					<g id="curve_1_c0_29_">
						<circle fill="#FFFFFF" cx="600" cy="1030" r="7.2"/>
					</g>
				</g>
			</g>
			<g>
				<g id="shape_4">
					<g>
						<defs>
							<polygon id="SVGID_93_" points="1000,1030 1000,1180 1150,1180 1150,880 1000,880 							"/>
						</defs>
						<clipPath id="SVGID_94_">
							<use xlink:href="#SVGID_93_"  overflow="visible"/>
						</clipPath>
						<g transform="scale(2) rotate(0)" clip-path="url(#SVGID_94_)">
							<g id="curve_1_c1_30_">
								
									<linearGradient id="SVGID_95_" gradientUnits="userSpaceOnUse" x1="294.4763" y1="996.7124" x2="294.4763" y2="997.7124" gradientTransform="matrix(288 0 0 -288 -83809.1563 288227.1563)">
									<stop  offset="0" style="stop-color:#1478C8"/>
									<stop  offset="1" style="stop-color:#288CDC"/>
								</linearGradient>
								<circle fill="url(#SVGID_95_)" cx="1000" cy="1030" r="144"/>
							</g>
						</g>
					</g>
					<g transform="scale(1.9)">
						<g id="curve_1_c0_30_">
							<circle fill="#FFFFFF" cx="1000" cy="1030" r="136.8"/>
						</g>
					</g>
					<g>
						<defs>
							<polygon id="SVGID_96_" points="1000,1030 913.224,1133.416 1016.64,1220.192 1190.192,1013.36 1086.776,926.584 							"/>
						</defs>
						<clipPath id="SVGID_97_">
							<use xlink:href="#SVGID_96_"  overflow="visible"/>
						</clipPath>
						<g transform="scale(1.8) rotate(40)" clip-path="url(#SVGID_97_)">
							<g id="curve_1_c1_31_">
								
									<linearGradient id="SVGID_98_" gradientUnits="userSpaceOnUse" x1="294.1223" y1="995.8746" x2="294.1223" y2="996.8746" gradientTransform="matrix(198.5587 166.6105 166.6105 -198.5587 -223407 149864.9844)">
									<stop  offset="0" style="stop-color:#1478C8"/>
									<stop  offset="1" style="stop-color:#288CDC"/>
								</linearGradient>
								<path fill="url(#SVGID_98_)" d="M1083.306,930.721c54.83,46.008,61.981,127.754,15.974,182.585
									c-46.008,54.83-127.754,61.981-182.585,15.974c-54.83-46.008-61.981-127.754-15.974-182.585
									C946.728,891.864,1028.475,884.713,1083.306,930.721z"/>
							</g>
						</g>
					</g>
					<g transform="scale(1.7)">
						<g id="curve_1_c0_31_">
							<circle fill="#FFFFFF" cx="1000" cy="1030" r="122.4"/>
						</g>
					</g>
					<g>
						<defs>
							<polygon id="SVGID_99_" points="1000,1030 881.823,1050.838 902.661,1169.015 1139.015,1127.339 1118.177,1009.162 							
								"/>
						</defs>
						<clipPath id="SVGID_100_">
							<use xlink:href="#SVGID_99_"  overflow="visible"/>
						</clipPath>
						<g transform="scale(1.6) rotate(80)" clip-path="url(#SVGID_100_)">
							<g id="curve_1_c1_32_">
								
									<linearGradient id="SVGID_101_" gradientUnits="userSpaceOnUse" x1="294.4016" y1="994.8958" x2="294.4016" y2="995.8958" gradientTransform="matrix(40.0085 226.8997 226.8997 -40.0085 -236633.5625 -25945.3359)">
									<stop  offset="0" style="stop-color:#1478C8"/>
									<stop  offset="1" style="stop-color:#288CDC"/>
								</linearGradient>
								<path fill="url(#SVGID_101_)" d="M1113.45,1009.996c11.048,62.656-30.789,122.405-93.446,133.454
									c-62.656,11.048-122.405-30.789-133.454-93.446c-11.048-62.656,30.789-122.405,93.446-133.454
									C1042.652,905.502,1102.402,947.339,1113.45,1009.996z"/>
							</g>
						</g>
					</g>
					<g transform="scale(1.5)">
						<g id="curve_1_c0_32_">
							<circle fill="#FFFFFF" cx="1000" cy="1030" r="108"/>
						</g>
					</g>
					<g>
						<defs>
							<polygon id="SVGID_102_" points="1000,1030 909.067,977.5 856.567,1068.433 1038.433,1173.433 1090.933,1082.5 							"/>
						</defs>
						<clipPath id="SVGID_103_">
							<use xlink:href="#SVGID_102_"  overflow="visible"/>
						</clipPath>
						<g transform="scale(1.4) rotate(120)" clip-path="url(#SVGID_103_)">
							<g id="curve_1_c1_33_">
								
									<linearGradient id="SVGID_104_" gradientUnits="userSpaceOnUse" x1="295.3518" y1="994.2258" x2="295.3518" y2="995.2258" gradientTransform="matrix(-100.8 174.5907 174.5907 100.8 -142898.4063 -150804.0469)">
									<stop  offset="0" style="stop-color:#1478C8"/>
									<stop  offset="1" style="stop-color:#288CDC"/>
								</linearGradient>
								<circle fill="url(#SVGID_104_)" cx="1000" cy="1030" r="100.8"/>
							</g>
						</g>
					</g>
					<g transform="scale(1.3)">
						<g id="curve_1_c0_33_">
							<circle fill="#FFFFFF" cx="1000" cy="1030" r="93.6"/>
						</g>
					</g>
					<g>
						<defs>
							<polygon id="SVGID_105_" points="1000,1030 969.218,945.428 884.646,976.209 946.209,1145.354 1030.782,1114.572 							"/>
						</defs>
						<clipPath id="SVGID_106_">
							<use xlink:href="#SVGID_105_"  overflow="visible"/>
						</clipPath>
						<g transform="scale(1.2) rotate(160)" clip-path="url(#SVGID_106_)">
							<g id="curve_1_c1_34_">
								
									<linearGradient id="SVGID_107_" gradientUnits="userSpaceOnUse" x1="296.6983" y1="994.3004" x2="296.6983" y2="995.3004" gradientTransform="matrix(-162.3789 59.1011 59.1011 162.3789 -9616.2588 -178039.7813)">
									<stop  offset="0" style="stop-color:#1478C8"/>
									<stop  offset="1" style="stop-color:#288CDC"/>
								</linearGradient>
								<circle fill="url(#SVGID_107_)" cx="1000" cy="1030" r="86.4"/>
							</g>
						</g>
					</g>
					<g transform="scale(1.1)">
						<g id="curve_1_c0_34_">
							
								<ellipse transform="matrix(0.7071 -0.7071 0.7071 0.7071 -435.4268 1008.7868)" fill="#FFFFFF" cx="1000" cy="1030" rx="79.2" ry="79.2"/>
						</g>
					</g>
					<g>
						<defs>
							<polygon id="SVGID_108_" points="1000,1030 1025.651,959.523 955.175,933.871 903.871,1074.825 974.349,1100.477 							"/>
						</defs>
						<clipPath id="SVGID_109_">
							<use xlink:href="#SVGID_108_"  overflow="visible"/>
						</clipPath>
						<g transform="scale(1) rotate(200)" clip-path="url(#SVGID_109_)">
							<g id="curve_1_c1_35_">
								
									<linearGradient id="SVGID_110_" gradientUnits="userSpaceOnUse" x1="297.9133" y1="995.3653" x2="297.9133" y2="996.3653" gradientTransform="matrix(-135.3157 -49.2509 -49.2509 135.3157 90359.6094 -119053.7109)">
									<stop  offset="0" style="stop-color:#1478C8"/>
									<stop  offset="1" style="stop-color:#288CDC"/>
								</linearGradient>
								<circle fill="url(#SVGID_110_)" cx="1000" cy="1030" r="72"/>
							</g>
						</g>
					</g>
					<g transform="scale(0.9)">
						<g id="curve_1_c0_35_">
							
								<ellipse transform="matrix(0.7071 -0.7071 0.7071 0.7071 -435.4268 1008.7868)" fill="#FFFFFF" cx="1000" cy="1030" rx="64.8" ry="64.8"/>
						</g>
					</g>
					<g>
						<defs>
							<polygon id="SVGID_111_" points="1000,1030 1051.962,1000 1021.962,948.038 918.038,1008.038 948.038,1060 							"/>
						</defs>
						<clipPath id="SVGID_112_">
							<use xlink:href="#SVGID_111_"  overflow="visible"/>
						</clipPath>
						<g transform="scale(0.8) rotate(240)" clip-path="url(#SVGID_112_)">
							<g id="curve_1_c1_36_">
								
									<linearGradient id="SVGID_113_" gradientUnits="userSpaceOnUse" x1="298.3243" y1="997.3289" x2="298.3243" y2="998.3289" gradientTransform="matrix(-57.6 -99.7661 -99.7661 57.6 117732.9766 -26682.2891)">
									<stop  offset="0" style="stop-color:#1478C8"/>
									<stop  offset="1" style="stop-color:#288CDC"/>
								</linearGradient>
								<circle fill="url(#SVGID_113_)" cx="1000" cy="1030" r="57.6"/>
							</g>
						</g>
					</g>
					<g transform="scale(0.7)">
						<g id="curve_1_c0_36_">
							
								<ellipse transform="matrix(0.7071 -0.7071 0.7071 0.7071 -435.4268 1008.7868)" fill="#FFFFFF" cx="1000" cy="1030" rx="50.4" ry="50.4"/>
						</g>
					</g>
					<g>
						<defs>
							<polygon id="SVGID_114_" points="1000,1030 1044.316,1037.814 1052.131,993.498 963.498,977.869 955.684,1022.185 							"/>
						</defs>
						<clipPath id="SVGID_115_">
							<use xlink:href="#SVGID_114_"  overflow="visible"/>
						</clipPath>
						<g transform="scale(0.6) rotate(280)" clip-path="url(#SVGID_115_)">
							<g id="curve_1_c1_37_">
								
									<linearGradient id="SVGID_116_" gradientUnits="userSpaceOnUse" x1="297.244" y1="999.774" x2="297.244" y2="1000.774" gradientTransform="matrix(15.0032 -85.0874 -85.0874 -15.0032 81651.1094 41329.0273)">
									<stop  offset="0" style="stop-color:#1478C8"/>
									<stop  offset="1" style="stop-color:#288CDC"/>
								</linearGradient>
								<path fill="url(#SVGID_116_)" d="M957.456,1022.498c4.144-23.496,26.55-39.185,50.046-35.042
									c23.496,4.144,39.185,26.55,35.042,50.046c-4.143,23.496-26.55,39.185-50.046,35.042
									C969.002,1068.4,953.313,1045.994,957.456,1022.498z"/>
							</g>
						</g>
					</g>
					<g transform="scale(0.5)">
						<g id="curve_1_c0_37_">
							<circle fill="#FFFFFF" cx="1000" cy="1030" r="36"/>
						</g>
					</g>
					<g>
						<defs>
							<polygon id="SVGID_117_" points="1000,1030 1019.283,1052.981 1042.265,1033.697 1003.697,987.735 980.717,1007.019 							
								"/>
						</defs>
						<clipPath id="SVGID_118_">
							<use xlink:href="#SVGID_117_"  overflow="visible"/>
						</clipPath>
						<g transform="scale(0.4) rotate(320)" clip-path="url(#SVGID_118_)">
							<g id="curve_1_c1_38_">
								
									<linearGradient id="SVGID_119_" gradientUnits="userSpaceOnUse" x1="293.8568" y1="1002.0127" x2="293.8568" y2="1003.0128" gradientTransform="matrix(44.1242 -37.0246 -37.0246 -44.1242 25151.3652 56144.918)">
									<stop  offset="0" style="stop-color:#1478C8"/>
									<stop  offset="1" style="stop-color:#288CDC"/>
								</linearGradient>
								<circle fill="url(#SVGID_119_)" cx="1000" cy="1030" r="28.801"/>
							</g>
						</g>
					</g>
					<g transform="scale(0.3)">
						<g id="curve_1_c0_38_">
							
								<ellipse transform="matrix(0.3689 -0.9295 0.9295 0.3689 -326.2668 1579.4691)" fill="#FFFFFF" cx="1000" cy="1030" rx="21.6" ry="21.6"/>
						</g>
					</g>
					<g>
						<defs>
							<polygon id="SVGID_120_" points="1000,1030 1000,1045 1015,1045 1015,1015 1000,1015 							"/>
						</defs>
						<clipPath id="SVGID_121_">
							<use xlink:href="#SVGID_120_"  overflow="visible"/>
						</clipPath>
						<g transform="scale(0.2) rotate(360)" clip-path="url(#SVGID_121_)">
							<g id="curve_1_c1_39_">
								
									<linearGradient id="SVGID_122_" gradientUnits="userSpaceOnUse" x1="285.2577" y1="1003.1182" x2="285.2577" y2="1004.1182" gradientTransform="matrix(28.8 0 0 -28.8 -7215.4219 29934.2031)">
									<stop  offset="0" style="stop-color:#1478C8"/>
									<stop  offset="1" style="stop-color:#288CDC"/>
								</linearGradient>
								<circle fill="url(#SVGID_122_)" cx="1000" cy="1030" r="14.4"/>
							</g>
						</g>
					</g>
					<g transform="translate(1000,1030) rotate(0) scale(3,3)">
						<g id="curve_1_c0_39_">
							
								<ellipse transform="matrix(0.378 -0.9258 0.9258 0.378 -331.5865 1566.4489)" fill="#FFFFFF" cx="1000" cy="1030" rx="7.2" ry="7.2"/>
						</g>
					</g>
				</g>
			</g>
		</g>
	</g>
</g>
</svg>
